<svg width="173" height="142" viewBox="0 0 173 142" fill="none" xmlns="http://www.w3.org/2000/svg">
<path d="M106.305 41.4167C111.252 41.4167 115.263 38.1054 115.263 34.0208C115.263 29.9362 111.252 26.625 106.305 26.625C101.357 26.625 97.3462 29.9362 97.3462 34.0208C97.3462 38.1054 101.357 41.4167 106.305 41.4167Z" fill="black"/>
<path d="M145.721 75.4375C149.679 75.4375 152.888 72.7885 152.888 69.5208C152.888 66.2531 149.679 63.6042 145.721 63.6042C141.763 63.6042 138.555 66.2531 138.555 69.5208C138.555 72.7885 141.763 75.4375 145.721 75.4375Z" fill="black"/>
<path d="M66.888 41.4167C71.8356 41.4167 75.8464 38.1054 75.8464 34.0208C75.8464 29.9362 71.8356 26.625 66.888 26.625C61.9405 26.625 57.9297 29.9362 57.9297 34.0208C57.9297 38.1054 61.9405 41.4167 66.888 41.4167Z" fill="black"/>
<path d="M27.4714 75.4375C31.4294 75.4375 34.638 72.7885 34.638 69.5208C34.638 66.2531 31.4294 63.6042 27.4714 63.6042C23.5133 63.6042 20.3047 66.2531 20.3047 69.5208C20.3047 72.7885 23.5133 75.4375 27.4714 75.4375Z" fill="black"/>
<path d="M165.071 94.9625L158.8 82.6854C156.65 80.1708 153.246 78.2479 149.484 77.3604C148.409 77.0646 146.975 76.9167 145.721 76.9167C143.213 76.9167 140.884 77.3604 138.734 78.2479L127.805 71.8875L121.355 49.7C121.175 49.1083 120.638 48.3687 120.1 48.0729C117.95 46.7417 115.442 45.7062 112.755 45.1146C110.605 44.6708 108.455 44.375 106.305 44.375C104.155 44.375 102.005 44.6708 100.034 45.1146C97.3463 45.7062 94.838 46.7417 92.688 48.0729C91.9713 48.5167 91.613 49.1083 91.4338 49.7L86.5963 65.675L81.938 49.7C81.7588 49.1083 81.2213 48.3687 80.6838 48.0729C78.5338 46.7417 76.0255 45.7062 73.338 45.1146C71.188 44.6708 69.038 44.375 66.888 44.375C64.738 44.375 62.588 44.6708 60.6171 45.1146C57.9296 45.7062 55.4213 46.7417 53.2713 48.0729C52.5546 48.5167 52.1963 49.1083 52.0171 49.7L45.5671 71.8875L34.638 78.2479C32.3088 77.3604 29.9796 76.9167 27.4713 76.9167C26.2171 76.9167 24.7838 77.0646 23.7088 77.3604C19.9463 78.1 16.5421 80.0229 14.3921 82.6854L8.12129 94.9625C7.40462 96.2937 7.94212 97.7729 9.19629 98.6604C9.91296 98.9562 10.6296 99.1042 11.3463 99.1042C12.7796 99.1042 14.0338 98.3646 14.5713 97.3292L18.513 89.6375V97.625V115.375H25.6796V97.625H29.263V115.375H36.4296V84.3125H36.6088L50.763 76.1771C51.4796 75.7333 52.0171 75.1417 52.1963 74.4021L57.9296 54.7292V115.375H65.0963V81.3542H68.6796V115.375H75.8463V54.7292L83.1921 79.1354C83.5505 80.4667 84.9838 81.3542 86.5963 81.3542C88.2088 81.3542 89.6421 80.4667 90.0005 79.1354L97.3463 54.7292V67.1542L91.0755 88.75H97.3463V115.375H104.513V88.75H108.096V115.375H115.263V88.75H121.534L115.263 67.1542V54.7292L121.175 74.4021C121.355 75.1417 121.892 75.7333 122.609 76.1771L136.942 84.4604V93.6312L133.18 102.062H136.763V115.375H143.93V102.062H147.513V115.375H154.68V102.062H158.263L154.859 94.2229V89.6375L158.8 97.3292C159.338 98.5125 160.771 99.1042 162.025 99.1042C162.742 99.1042 163.459 98.9562 164.175 98.5125C165.25 97.7729 165.788 96.1458 165.071 94.9625Z" fill="black"/>
</svg>
