<svg width="112" height="104" viewBox="0 0 112 104" fill="none" xmlns="http://www.w3.org/2000/svg">
<g clip-path="url(#clip0_279_795)">
<path d="M88.0218 26.1622C87.0709 23.6147 84.4732 21.8013 81.4349 21.8013H30.41C27.3717 21.8013 24.7741 23.6147 23.8232 26.1622L14.1748 52.0256V86.5678C14.1748 88.9425 16.2622 90.8855 18.8134 90.8855H23.4521C26.0265 90.8855 28.0907 88.9425 28.0907 86.5678V82.25H83.7542V86.5678C83.7542 88.9425 85.8416 90.8855 88.3929 90.8855H93.0315C95.6059 90.8855 97.6701 88.9425 97.6701 86.5678V52.0256L88.0218 26.1622ZM30.41 69.2967C26.5599 69.2967 23.4521 66.4038 23.4521 62.82C23.4521 59.2363 26.5599 56.3434 30.41 56.3434C34.2601 56.3434 37.3679 59.2363 37.3679 62.82C37.3679 66.4038 34.2601 69.2967 30.41 69.2967ZM81.4349 69.2967C77.5849 69.2967 74.477 66.4038 74.477 62.82C74.477 59.2363 77.5849 56.3434 81.4349 56.3434C85.285 56.3434 88.3929 59.2363 88.3929 62.82C88.3929 66.4038 85.285 69.2967 81.4349 69.2967ZM23.4521 47.7079L30.41 28.2779H81.4349L88.3929 47.7079H23.4521Z" fill="black"/>
</g>
<defs>
<clipPath id="clip0_279_795">
<rect width="111.327" height="103.626" fill="white" transform="translate(0.259033 0.212402)"/>
</clipPath>
</defs>
</svg>
