<svg width="108" height="86" viewBox="0 0 108 86" fill="none" xmlns="http://www.w3.org/2000/svg">
<g clip-path="url(#clip0_336_542)">
<path d="M100.733 47.2817C100.062 46.484 99.0569 45.9521 97.7161 45.9521C90.3417 45.9521 83.3025 48.6113 78.9449 53.3977L75.9281 56.5886C72.2409 60.0454 66.5425 61.9068 60.8441 61.9068H50.7881C48.7769 61.9068 47.4361 60.8432 47.4361 59.2477C47.4361 57.6522 48.7769 56.5886 50.7881 56.5886H57.1569C62.5201 56.5886 67.5481 53.1318 67.5481 48.8772V48.6113C67.5481 47.2817 65.8721 45.9521 64.1961 45.9521H43.7489C31.6816 45.9521 21.9608 50.2067 16.5976 57.1204L7.54723 68.2887C6.87683 69.0864 6.87683 70.1501 7.54723 70.9478L17.6032 84.2434C17.9384 84.7752 18.944 85.307 19.6144 85.5729C19.9496 85.5729 19.9496 85.5729 20.2848 85.5729C20.9552 85.5729 21.6256 85.307 22.296 85.0411C35.0336 78.3933 49.7825 74.9365 64.8665 74.9365C75.9281 74.9365 85.9841 70.1501 91.3473 62.4386L100.398 49.6749C101.068 49.1431 101.068 48.0794 100.733 47.2817Z" fill="black"/>
<path d="M43.7485 40.6339H64.1957C69.5589 40.6339 74.2518 44.0908 74.2518 48.3454V48.8772L95.0342 31.8589C103.079 25.2111 103.079 14.8406 95.0342 8.19277C91.0118 5.26775 85.9838 3.40637 80.6206 3.40637C75.2574 3.40637 69.8941 5.26775 65.8717 8.45868L64.1957 9.78824L62.5197 8.45868C58.4973 5.26775 53.4693 3.40637 47.7709 3.40637C42.4077 3.40637 37.3797 5.26775 33.3573 8.45868C25.3125 15.1065 25.3125 25.477 33.3573 32.1248L43.7485 40.6339ZM47.4357 24.6793H52.7989L58.4973 20.1588C59.1677 19.627 60.1733 19.361 61.5141 19.361C62.5197 19.627 63.5253 20.1588 63.8605 20.6906L67.2125 26.0088L71.235 18.2974C71.5702 17.4997 72.5757 16.7019 73.9165 16.7019C75.2574 16.7019 76.2629 16.9678 76.9333 17.7656L83.6374 25.7429C84.643 27.0725 84.3078 28.6679 82.6318 29.4657C80.9558 30.2634 78.9446 29.9975 77.939 28.6679L74.9222 24.9452L70.5645 33.4543C70.2293 34.518 68.8885 35.3157 67.5477 35.3157C66.2069 35.3157 65.2013 34.7839 64.5309 33.7202L59.8381 26.2747L56.4861 28.9338C55.8157 29.7316 55.1453 29.9975 54.1397 29.9975H47.4357C45.4245 29.9975 44.0837 28.9338 44.0837 27.3384C44.0837 25.7429 45.4245 24.6793 47.4357 24.6793Z" fill="black"/>
</g>
<defs>
<clipPath id="clip0_336_542">
<rect width="107.264" height="85.0916" fill="white" transform="translate(0.507812 0.747253)"/>
</clipPath>
</defs>
</svg>
