<svg width="137" height="30" viewBox="0 0 137 30" fill="none" xmlns="http://www.w3.org/2000/svg">
<path d="M15.2306 0C11.2228 0 10.7203 0.0167435 9.14628 0.0875281C7.57558 0.158197 6.50285 0.404038 5.56414 0.763619C4.59374 1.13533 3.77079 1.63266 2.95041 2.44126C2.13003 3.24986 1.62544 4.06099 1.24832 5.01745C0.8835 5.94262 0.634077 6.99994 0.562378 8.54808C0.490562 10.0995 0.473633 10.5948 0.473633 14.545C0.473633 18.4951 0.490562 18.9904 0.562378 20.5418C0.634077 22.0899 0.8835 23.1473 1.24832 24.0724C1.62544 25.0289 2.13003 25.84 2.95041 26.6487C3.77079 27.4573 4.59374 27.9546 5.56414 28.3263C6.50285 28.6858 7.57558 28.9317 9.14628 29.0023C10.7203 29.0731 11.2228 29.0899 15.2306 29.0899C19.2383 29.0899 19.7408 29.0731 21.3148 29.0023C22.8855 28.9317 23.9582 28.6858 24.8968 28.3263C25.8672 27.9546 26.6902 27.4573 27.5106 26.6487C28.331 25.84 28.8356 25.0289 29.2127 24.0724C29.5775 23.1473 29.827 22.0899 29.8986 20.5418C29.9704 18.9904 29.9874 18.4951 29.9874 14.545C29.9874 10.5948 29.9704 10.0995 29.8986 8.54808C29.827 6.99994 29.5775 5.94262 29.2127 5.01745C28.8356 4.06099 28.331 3.24986 27.5106 2.44126C26.6902 1.63266 25.8672 1.13533 24.8968 0.763619C23.9582 0.404038 22.8855 0.158197 21.3148 0.0875281C19.7408 0.0167435 19.2383 0 15.2306 0ZM15.2306 2.62076C19.1708 2.62076 19.6375 2.63554 21.1936 2.70552C22.6324 2.77024 23.4137 3.00719 23.9337 3.20632C24.6225 3.47018 25.1141 3.78542 25.6305 4.29436C26.1469 4.80331 26.4667 5.28789 26.7344 5.96675C26.9365 6.47927 27.1769 7.24942 27.2425 8.66753C27.3135 10.2012 27.3285 10.6613 27.3285 14.545C27.3285 18.4286 27.3135 18.8886 27.2425 20.4223C27.1769 21.8405 26.9365 22.6106 26.7344 23.1231C26.4667 23.802 26.1469 24.2866 25.6305 24.7955C25.1141 25.3045 24.6225 25.6197 23.9337 25.8836C23.4137 26.0827 22.6324 26.3197 21.1936 26.3844C19.6378 26.4543 19.1711 26.4692 15.2306 26.4692C11.29 26.4692 10.8234 26.4543 9.26747 26.3844C7.82869 26.3197 7.04733 26.0827 6.52733 25.8836C5.83852 25.6197 5.34694 25.3045 4.83052 24.7955C4.31415 24.2866 3.99432 23.802 3.72668 23.1231C3.52459 22.6106 3.28418 21.8405 3.21852 20.4223C3.14752 18.8886 3.13253 18.4286 3.13253 14.545C3.13253 10.6613 3.14752 10.2012 3.21852 8.66753C3.28418 7.24942 3.52459 6.47927 3.72668 5.96675C3.99432 5.28789 4.31415 4.80331 4.83052 4.29436C5.34694 3.78542 5.83852 3.47018 6.52733 3.20632C7.04733 3.00719 7.82869 2.77024 9.26747 2.70552C10.8235 2.63554 11.2903 2.62076 15.2306 2.62076Z" fill="black"/>
<path d="M15.2307 19.3704C12.514 19.3704 10.3117 17.1997 10.3117 14.5221C10.3117 11.8444 12.514 9.67374 15.2307 9.67374C17.9474 9.67374 20.1497 11.8444 20.1497 14.5221C20.1497 17.1997 17.9474 19.3704 15.2307 19.3704ZM15.2307 7.05304C11.0455 7.05304 7.65283 10.397 7.65283 14.5221C7.65283 18.6471 11.0455 21.9911 15.2307 21.9911C19.4159 21.9911 22.8085 18.6471 22.8085 14.5221C22.8085 10.397 19.4159 7.05304 15.2307 7.05304Z" fill="#030404"/>
<path d="M24.6164 7.03516C24.6164 7.99912 23.8235 8.78053 22.8455 8.78053C21.8676 8.78053 21.0747 7.99912 21.0747 7.03516C21.0747 6.0712 21.8676 5.28979 22.8455 5.28979C23.8235 5.28979 24.6164 6.0712 24.6164 7.03516Z" fill="#030404"/>
<path d="M76.061 10.1564H71.2931V7.25037C71.2931 6.159 72.0715 5.90456 72.6197 5.90456C73.1666 5.90456 75.9843 5.90456 75.9843 5.90456V1.10671L71.3505 1.0899C66.2065 1.0899 65.0359 4.66829 65.0359 6.95826V10.1564H62.061V15.1003H65.0359C65.0359 21.4451 65.0359 29.0899 65.0359 29.0899H71.2931C71.2931 29.0899 71.2931 21.3698 71.2931 15.1003H75.5153L76.061 10.1564Z" fill="black"/>
<path d="M136.061 3.52276C135.032 4.10589 133.924 4.49923 132.762 4.67526C133.948 3.76978 134.858 2.3355 135.287 0.6245C134.177 1.46406 132.949 2.07327 131.64 2.40214C130.592 0.979448 129.099 0.0899048 127.447 0.0899048C124.275 0.0899048 121.703 3.36774 121.703 7.41126C121.703 7.98424 121.753 8.54274 121.852 9.07951C117.077 8.77382 112.844 5.85962 110.011 1.43002C109.516 2.5108 109.233 3.76833 109.233 5.11134C109.233 7.65103 110.247 9.89227 111.788 11.2049C110.847 11.1665 109.961 10.8369 109.186 10.2885C109.186 10.3189 109.186 10.3501 109.186 10.3812C109.186 13.9278 111.166 16.8862 113.794 17.5599C113.312 17.7265 112.805 17.8163 112.281 17.8163C111.91 17.8163 111.55 17.7707 111.2 17.6845C111.931 20.5929 114.052 22.7103 116.566 22.7689C114.6 24.7327 112.123 25.9033 109.431 25.9033C108.968 25.9033 108.511 25.8686 108.061 25.8005C110.604 27.8787 113.623 29.0899 116.867 29.0899C127.434 29.0899 133.211 17.9344 133.211 8.25951C133.211 7.94223 133.206 7.62567 133.195 7.31129C134.317 6.28122 135.291 4.99109 136.061 3.52276Z" fill="black"/>
</svg>
