<svg width="163" height="50" viewBox="0 0 163 50" fill="none" xmlns="http://www.w3.org/2000/svg">
<path d="M95.2067 17.8872H88.8358V13.7565C88.8358 12.2053 89.8758 11.8436 90.6083 11.8436C91.3392 11.8436 95.1042 11.8436 95.1042 11.8436V5.02389L88.9125 5C82.0392 5 80.475 10.0864 80.475 13.3413V17.8872H76.5V24.9145H80.475C80.475 33.9331 80.475 44.7994 80.475 44.7994H88.8358C88.8358 44.7994 88.8358 33.826 88.8358 24.9145H94.4775L95.2067 17.8872Z" fill="black"/>
<path d="M162.333 9.77852C160.74 10.5902 159.026 11.1378 157.227 11.3828C159.064 10.1224 160.472 8.12585 161.136 5.74415C159.418 6.91282 157.516 7.76083 155.491 8.21862C153.87 6.23824 151.559 5 149.002 5C144.092 5 140.112 9.56274 140.112 15.1913C140.112 15.9889 140.19 16.7663 140.343 17.5135C132.954 17.088 126.402 13.0314 122.017 6.86543C121.252 8.36987 120.814 10.1203 120.814 11.9898C120.814 15.525 122.383 18.6449 124.769 20.472C123.312 20.4185 121.941 19.9597 120.742 19.1964C120.741 19.2388 120.741 19.2821 120.741 19.3255C120.741 24.2623 123.805 28.3804 127.873 29.3181C127.127 29.55 126.341 29.6751 125.53 29.6751C124.957 29.6751 124.4 29.6116 123.857 29.4916C124.989 33.5401 128.272 36.4874 132.162 36.5691C129.119 39.3027 125.287 40.9322 121.121 40.9322C120.404 40.9322 119.696 40.8838 119 40.789C122.935 43.6819 127.608 45.3679 132.628 45.3679C148.981 45.3679 157.923 29.8394 157.923 16.3721C157.923 15.9304 157.915 15.4898 157.898 15.0521C159.635 13.6183 161.142 11.8224 162.333 9.77852Z" fill="black"/>
<path d="M26 0C19.1633 0 18.306 0.0284872 15.621 0.148919C12.9416 0.269155 11.1117 0.687425 9.51037 1.29921C7.85501 1.93163 6.45116 2.7778 5.0517 4.15353C3.65225 5.52927 2.79149 6.90932 2.14817 8.53663C1.52584 10.1107 1.10036 11.9096 0.978047 14.5436C0.855539 17.1831 0.82666 18.0258 0.82666 24.7466C0.82666 31.4673 0.855539 32.3101 0.978047 34.9496C1.10036 37.5835 1.52584 39.3825 2.14817 40.9565C2.79149 42.5838 3.65225 43.9639 5.0517 45.3397C6.45116 46.7155 7.85501 47.5616 9.51037 48.194C11.1117 48.8057 12.9416 49.2241 15.621 49.3442C18.306 49.4647 19.1633 49.4932 26 49.4932C32.8365 49.4932 33.6938 49.4647 36.3788 49.3442C39.0582 49.2241 40.8881 48.8057 42.4893 48.194C44.1447 47.5616 45.5485 46.7155 46.9481 45.3397C48.3476 43.9639 49.2083 42.5838 49.8516 40.9565C50.4739 39.3825 50.8995 37.5835 51.0217 34.9496C51.1442 32.3101 51.1731 31.4673 51.1731 24.7466C51.1731 18.0258 51.1442 17.1831 51.0217 14.5436C50.8995 11.9096 50.4739 10.1107 49.8516 8.53663C49.2083 6.90932 48.3476 5.52927 46.9481 4.15353C45.5485 2.7778 44.1447 1.93163 42.4893 1.29921C40.8881 0.687425 39.0582 0.269155 36.3788 0.148919C33.6938 0.0284872 32.8365 0 26 0ZM26 4.45893C32.7214 4.45893 33.5176 4.48408 36.1721 4.60314C38.6264 4.71325 39.9593 5.1164 40.8464 5.4552C42.0214 5.90412 42.86 6.44046 43.7408 7.30638C44.6217 8.17229 45.1672 8.99675 45.6239 10.1518C45.9686 11.0238 46.3787 12.3341 46.4906 14.7468C46.6118 17.3563 46.6374 18.139 46.6374 24.7466C46.6374 31.3542 46.6118 32.1369 46.4906 34.7463C46.3787 37.1591 45.9686 38.4694 45.6239 39.3414C45.1672 40.4965 44.6217 41.3209 43.7408 42.1868C42.86 43.0528 42.0214 43.589 40.8464 44.038C39.9593 44.3769 38.6264 44.78 36.1721 44.89C33.518 45.0091 32.7219 45.0343 26 45.0343C19.2779 45.0343 18.4819 45.0091 15.8278 44.89C13.3734 44.78 12.0405 44.3769 11.1534 44.038C9.97842 43.589 9.13985 43.0528 8.25891 42.1868C7.37807 41.3209 6.83247 40.4965 6.37591 39.3414C6.03117 38.4694 5.62108 37.1591 5.50906 34.7463C5.38795 32.1369 5.36237 31.3542 5.36237 24.7466C5.36237 18.139 5.38795 17.3563 5.50906 14.7468C5.62108 12.3341 6.03117 11.0238 6.37591 10.1518C6.83247 8.99675 7.37807 8.17229 8.25891 7.30638C9.13985 6.44046 9.97842 5.90412 11.1534 5.4552C12.0405 5.1164 13.3734 4.71325 15.8278 4.60314C18.4822 4.48408 19.2784 4.45893 26 4.45893Z" fill="black"/>
<path d="M25.9998 32.9955C21.3655 32.9955 17.6087 29.3024 17.6087 24.7467C17.6087 20.1909 21.3655 16.4978 25.9998 16.4978C30.6341 16.4978 34.3909 20.1909 34.3909 24.7467C34.3909 29.3024 30.6341 32.9955 25.9998 32.9955ZM25.9998 12.0389C18.8605 12.0389 13.073 17.7283 13.073 24.7467C13.073 31.7649 18.8605 37.4543 25.9998 37.4543C33.1391 37.4543 38.9266 31.7649 38.9266 24.7467C38.9266 17.7283 33.1391 12.0389 25.9998 12.0389Z" fill="#030404"/>
<path d="M42.4583 11.5368C42.4583 13.1769 41.1058 14.5063 39.4375 14.5063C37.7692 14.5063 36.4167 13.1769 36.4167 11.5368C36.4167 9.89673 37.7692 8.56726 39.4375 8.56726C41.1058 8.56726 42.4583 9.89673 42.4583 11.5368Z" fill="#030404"/>
</svg>
