<svg width="167" height="30" viewBox="0 0 167 30" fill="none" xmlns="http://www.w3.org/2000/svg">
<path d="M18.235 0C13.2872 0 12.6668 0.0167435 10.7236 0.0875281C8.78443 0.158197 7.46007 0.404038 6.30118 0.763619C5.10316 1.13533 4.08716 1.63266 3.07435 2.44126C2.06154 3.24986 1.43859 4.06099 0.973007 5.01745C0.522611 5.94262 0.214681 6.99994 0.126163 8.54808C0.0375015 10.0995 0.0166016 10.5948 0.0166016 14.545C0.0166016 18.4951 0.0375015 18.9904 0.126163 20.5418C0.214681 22.0899 0.522611 23.1473 0.973007 24.0724C1.43859 25.0289 2.06154 25.84 3.07435 26.6487C4.08716 27.4573 5.10316 27.9546 6.30118 28.3263C7.46007 28.6858 8.78443 28.9317 10.7236 29.0023C12.6668 29.0731 13.2872 29.0899 18.235 29.0899C23.1828 29.0899 23.8032 29.0731 25.7464 29.0023C27.6855 28.9317 29.0099 28.6858 30.1687 28.3263C31.3667 27.9546 32.3827 27.4573 33.3956 26.6487C34.4084 25.84 35.0314 25.0289 35.497 24.0724C35.9473 23.1473 36.2553 22.0899 36.3437 20.5418C36.4324 18.9904 36.4534 18.4951 36.4534 14.545C36.4534 10.5948 36.4324 10.0995 36.3437 8.54808C36.2553 6.99994 35.9473 5.94262 35.497 5.01745C35.0314 4.06099 34.4084 3.24986 33.3956 2.44126C32.3827 1.63266 31.3667 1.13533 30.1687 0.763619C29.0099 0.404038 27.6855 0.158197 25.7464 0.0875281C23.8032 0.0167435 23.1828 0 18.235 0ZM18.235 2.62076C23.0995 2.62076 23.6757 2.63554 25.5968 2.70552C27.373 2.77024 28.3377 3.00719 28.9797 3.20632C29.8301 3.47018 30.4369 3.78542 31.0744 4.29436C31.712 4.80331 32.1068 5.28789 32.4373 5.96675C32.6868 6.47927 32.9836 7.24942 33.0645 8.66753C33.1522 10.2012 33.1708 10.6613 33.1708 14.545C33.1708 18.4286 33.1522 18.8886 33.0645 20.4223C32.9836 21.8405 32.6868 22.6106 32.4373 23.1231C32.1068 23.802 31.712 24.2866 31.0744 24.7955C30.4369 25.3045 29.8301 25.6197 28.9797 25.8836C28.3377 26.0827 27.373 26.3197 25.5968 26.3844C23.676 26.4543 23.0999 26.4692 18.235 26.4692C13.3701 26.4692 12.794 26.4543 10.8732 26.3844C9.09692 26.3197 8.13227 26.0827 7.4903 25.8836C6.63992 25.6197 6.03302 25.3045 5.39547 24.7955C4.75799 24.2866 4.36313 23.802 4.03271 23.1231C3.78321 22.6106 3.48642 21.8405 3.40535 20.4223C3.3177 18.8886 3.29919 18.4286 3.29919 14.545C3.29919 10.6613 3.3177 10.2012 3.40535 8.66753C3.48642 7.24942 3.78321 6.47927 4.03271 5.96675C4.36313 5.28789 4.75799 4.80331 5.39547 4.29436C6.03302 3.78542 6.63992 3.47018 7.4903 3.20632C8.13227 3.00719 9.09692 2.77024 10.8732 2.70552C12.7942 2.63554 13.3705 2.62076 18.235 2.62076Z" fill="black"/>
<path d="M18.2353 19.3704C14.8813 19.3704 12.1625 17.1997 12.1625 14.5221C12.1625 11.8444 14.8813 9.67377 18.2353 9.67377C21.5892 9.67377 24.3081 11.8444 24.3081 14.5221C24.3081 17.1997 21.5892 19.3704 18.2353 19.3704ZM18.2353 7.05307C13.0684 7.05307 8.87988 10.397 8.87988 14.5221C8.87988 18.6471 13.0684 21.9911 18.2353 21.9911C23.4021 21.9911 27.5906 18.6471 27.5906 14.5221C27.5906 10.397 23.4021 7.05307 18.2353 7.05307Z" fill="#030404"/>
<path d="M29.8221 7.03516C29.8221 7.99913 28.8433 8.78053 27.6359 8.78053C26.4285 8.78053 25.4497 7.99913 25.4497 7.03516C25.4497 6.0712 26.4285 5.2898 27.6359 5.2898C28.8433 5.2898 29.8221 6.0712 29.8221 7.03516Z" fill="#030404"/>
<path d="M75.604 10.1564H70.8361V7.25034C70.8361 6.15897 71.6144 5.90453 72.1626 5.90453C72.7096 5.90453 75.5273 5.90453 75.5273 5.90453V1.10668L70.8935 1.08987C65.7495 1.08987 64.5789 4.66826 64.5789 6.95823V10.1564H61.604V15.1003H64.5789C64.5789 21.4451 64.5789 29.0899 64.5789 29.0899H70.8361C70.8361 29.0899 70.8361 21.3697 70.8361 15.1003H75.0583L75.604 10.1564Z" fill="black"/>
<path d="M135.604 3.52273C134.575 4.10586 133.467 4.4992 132.305 4.67523C133.491 3.76975 134.401 2.33547 134.83 0.62447C133.72 1.46403 132.492 2.07324 131.183 2.40211C130.135 0.979418 128.642 0.0898743 126.99 0.0898743C123.818 0.0898743 121.246 3.36771 121.246 7.41123C121.246 7.98421 121.296 8.54271 121.395 9.07948C116.62 8.77379 112.387 5.85959 109.554 1.42998C109.059 2.51077 108.776 3.7683 108.776 5.11131C108.776 7.651 109.79 9.89224 111.331 11.2048C110.39 11.1664 109.504 10.8368 108.729 10.2885C108.729 10.3189 108.729 10.3501 108.729 10.3812C108.729 13.9278 110.709 16.8862 113.337 17.5598C112.855 17.7265 112.348 17.8163 111.824 17.8163C111.453 17.8163 111.093 17.7706 110.743 17.6844C111.474 20.5928 113.595 22.7102 116.109 22.7689C114.143 24.7327 111.666 25.9033 108.974 25.9033C108.511 25.9033 108.054 25.8685 107.604 25.8004C110.147 27.8787 113.166 29.0899 116.41 29.0899C126.977 29.0899 132.754 17.9344 132.754 8.25948C132.754 7.9422 132.749 7.62564 132.738 7.31126C133.86 6.28119 134.834 4.99106 135.604 3.52273Z" fill="black"/>
</svg>
