<svg width="212" height="175" viewBox="0 0 212 175" fill="none" xmlns="http://www.w3.org/2000/svg">
<path d="M130.275 51.0417C136.372 51.0417 141.315 46.9609 141.315 41.9271C141.315 36.8932 136.372 32.8125 130.275 32.8125C124.177 32.8125 119.234 36.8932 119.234 41.9271C119.234 46.9609 124.177 51.0417 130.275 51.0417Z" fill="black"/>
<path d="M178.851 92.9687C183.729 92.9687 187.683 89.7041 187.683 85.6771C187.683 81.65 183.729 78.3854 178.851 78.3854C173.973 78.3854 170.019 81.65 170.019 85.6771C170.019 89.7041 173.973 92.9687 178.851 92.9687Z" fill="black"/>
<path d="M81.6979 51.0417C87.7952 51.0417 92.7381 46.9609 92.7381 41.9271C92.7381 36.8932 87.7952 32.8125 81.6979 32.8125C75.6006 32.8125 70.6577 36.8932 70.6577 41.9271C70.6577 46.9609 75.6006 51.0417 81.6979 51.0417Z" fill="black"/>
<path d="M33.1207 92.9687C37.9986 92.9687 41.9529 89.7041 41.9529 85.6771C41.9529 81.65 37.9986 78.3854 33.1207 78.3854C28.2429 78.3854 24.2886 81.65 24.2886 85.6771C24.2886 89.7041 28.2429 92.9687 33.1207 92.9687Z" fill="black"/>
<path d="M202.698 117.031L194.97 101.901C192.321 98.8021 188.125 96.4323 183.488 95.3385C182.164 94.974 180.397 94.7917 178.851 94.7917C175.76 94.7917 172.89 95.3385 170.24 96.4323L156.771 88.5937L148.822 61.25C148.601 60.5208 147.939 59.6094 147.276 59.2448C144.627 57.6042 141.536 56.3281 138.224 55.599C135.574 55.0521 132.924 54.6875 130.275 54.6875C127.625 54.6875 124.975 55.0521 122.546 55.599C119.234 56.3281 116.143 57.6042 113.493 59.2448C112.61 59.7917 112.169 60.5208 111.948 61.25L105.986 80.9375L100.245 61.25C100.024 60.5208 99.362 59.6094 98.6996 59.2448C96.05 57.6042 92.9587 56.3281 89.6467 55.599C86.997 55.0521 84.3474 54.6875 81.6977 54.6875C79.0481 54.6875 76.3984 55.0521 73.9696 55.599C70.6575 56.3281 67.5663 57.6042 64.9166 59.2448C64.0334 59.7917 63.5918 60.5208 63.371 61.25L55.422 88.5937L41.953 96.4323C39.0825 95.3385 36.2121 94.7917 33.1208 94.7917C31.5752 94.7917 29.8088 94.974 28.484 95.3385C23.8471 96.25 19.6518 98.6198 17.0021 101.901L9.27401 117.031C8.39079 118.672 9.05321 120.495 10.5988 121.589C11.4821 121.953 12.3653 122.135 13.2485 122.135C15.0149 122.135 16.5605 121.224 17.223 119.948L22.0806 110.469V120.312V142.187H30.9128V120.312H35.3289V142.187H44.161V103.906H44.3818L61.8254 93.8802C62.7086 93.3333 63.371 92.6042 63.5918 91.6927L70.6575 67.4479V142.187H79.4897V100.26H83.9058V142.187H92.7379V67.4479L101.791 97.526C102.232 99.1667 103.999 100.26 105.986 100.26C107.973 100.26 109.74 99.1667 110.181 97.526L119.234 67.4479V82.7604L111.506 109.375H119.234V142.187H128.067V109.375H132.483V142.187H141.315V109.375H149.043L141.315 82.7604V67.4479L148.601 91.6927C148.822 92.6042 149.485 93.3333 150.368 93.8802L168.032 104.089V115.391L163.395 125.781H167.811V142.187H176.643V125.781H181.06V142.187H189.892V125.781H194.308L190.112 116.12V110.469L194.97 119.948C195.633 121.406 197.399 122.135 198.945 122.135C199.828 122.135 200.711 121.953 201.594 121.406C202.919 120.495 203.582 118.49 202.698 117.031Z" fill="black"/>
</svg>
