<svg width="108" height="86" viewBox="0 0 108 86" fill="none" xmlns="http://www.w3.org/2000/svg">
<g clip-path="url(#clip0_279_784)">
<path d="M100.732 47.2818C100.062 46.4841 99.0564 45.9523 97.7156 45.9523C90.3412 45.9523 83.302 48.6114 78.9444 53.3978L75.9276 56.5887C72.2404 60.0456 66.542 61.9069 60.8436 61.9069H50.7876C48.7764 61.9069 47.4356 60.8433 47.4356 59.2478C47.4356 57.6524 48.7764 56.5887 50.7876 56.5887H57.1564C62.5196 56.5887 67.5476 53.1319 67.5476 48.8773V48.6114C67.5476 47.2818 65.8716 45.9523 64.1956 45.9523H43.7484C31.6812 45.9523 21.9604 50.2069 16.5972 57.1205L7.54675 68.2888C6.87635 69.0865 6.87635 70.1502 7.54675 70.9479L17.6028 84.2435C17.938 84.7753 18.9436 85.3071 19.614 85.573C19.9492 85.573 19.9492 85.573 20.2844 85.573C20.9548 85.573 21.6252 85.3071 22.2956 85.0412C35.0332 78.3934 49.782 74.9366 64.866 74.9366C75.9276 74.9366 85.9836 70.1502 91.3468 62.4388L100.397 49.675C101.068 49.1432 101.068 48.0796 100.732 47.2818Z" fill="black"/>
<path d="M43.7483 40.6339H64.1955C69.5587 40.6339 74.2515 44.0908 74.2515 48.3454V48.8772L95.0339 31.8589C103.079 25.2111 103.079 14.8406 95.0339 8.19277C91.0115 5.26775 85.9835 3.40637 80.6203 3.40637C75.2571 3.40637 69.8939 5.26775 65.8715 8.45868L64.1955 9.78824L62.5195 8.45868C58.4971 5.26775 53.4691 3.40637 47.7707 3.40637C42.4075 3.40637 37.3795 5.26775 33.3571 8.45868C25.3123 15.1065 25.3123 25.477 33.3571 32.1248L43.7483 40.6339ZM47.4355 24.6793H52.7987L58.4971 20.1588C59.1675 19.627 60.1731 19.361 61.5139 19.361C62.5195 19.627 63.5251 20.1588 63.8603 20.6906L67.2123 26.0088L71.2347 18.2974C71.5699 17.4997 72.5755 16.7019 73.9163 16.7019C75.2571 16.7019 76.2627 16.9678 76.9331 17.7656L83.6371 25.7429C84.6427 27.0725 84.3075 28.6679 82.6315 29.4657C80.9555 30.2634 78.9443 29.9975 77.9387 28.6679L74.9219 24.9452L70.5643 33.4543C70.2291 34.518 68.8883 35.3157 67.5475 35.3157C66.2067 35.3157 65.2011 34.7839 64.5307 33.7202L59.8379 26.2747L56.4859 28.9338C55.8155 29.7316 55.1451 29.9975 54.1395 29.9975H47.4355C45.4243 29.9975 44.0835 28.9338 44.0835 27.3384C44.0835 25.7429 45.4243 24.6793 47.4355 24.6793Z" fill="black"/>
</g>
<defs>
<clipPath id="clip0_279_784">
<rect width="107.264" height="85.0916" fill="white" transform="translate(0.507568 0.747314)"/>
</clipPath>
</defs>
</svg>
