<svg width="136" height="118" viewBox="0 0 136 118" fill="none" xmlns="http://www.w3.org/2000/svg">
<path d="M107.213 29.5492C106.052 26.6484 102.878 24.5834 99.1667 24.5834H36.8333C33.1217 24.5834 29.9483 26.6484 28.7867 29.5492L17 59.0001V98.3334C17 101.038 19.55 103.25 22.6667 103.25H28.3333C31.4783 103.25 34 101.038 34 98.3334V93.4167H102V98.3334C102 101.038 104.55 103.25 107.667 103.25H113.333C116.478 103.25 119 101.038 119 98.3334V59.0001L107.213 29.5492ZM36.8333 78.6667C32.13 78.6667 28.3333 75.3726 28.3333 71.2917C28.3333 67.2109 32.13 63.9167 36.8333 63.9167C41.5367 63.9167 45.3333 67.2109 45.3333 71.2917C45.3333 75.3726 41.5367 78.6667 36.8333 78.6667ZM99.1667 78.6667C94.4633 78.6667 90.6667 75.3726 90.6667 71.2917C90.6667 67.2109 94.4633 63.9167 99.1667 63.9167C103.87 63.9167 107.667 67.2109 107.667 71.2917C107.667 75.3726 103.87 78.6667 99.1667 78.6667ZM28.3333 54.0834L36.8333 31.9584H99.1667L107.667 54.0834H28.3333Z" fill="black"/>
</svg>
