<svg width="192" height="163" viewBox="0 0 192 163" fill="none" xmlns="http://www.w3.org/2000/svg">
<g clip-path="url(#clip0_336_918)">
<path d="M151.36 40.7952C149.72 36.7904 145.24 33.9395 140 33.9395H52C46.76 33.9395 42.28 36.7904 40.64 40.7952L24 81.4546V135.758C24 139.491 27.6 142.546 32 142.546H40C44.44 142.546 48 139.491 48 135.758V128.97H144V135.758C144 139.491 147.6 142.546 152 142.546H160C164.44 142.546 168 139.491 168 135.758V81.4546L151.36 40.7952ZM52 108.606C45.36 108.606 40 104.058 40 98.4243C40 92.7904 45.36 88.2425 52 88.2425C58.64 88.2425 64 92.7904 64 98.4243C64 104.058 58.64 108.606 52 108.606ZM140 108.606C133.36 108.606 128 104.058 128 98.4243C128 92.7904 133.36 88.2425 140 88.2425C146.64 88.2425 152 92.7904 152 98.4243C152 104.058 146.64 108.606 140 108.606ZM40 74.6667L52 44.1213H140L152 74.6667H40Z" fill="black"/>
</g>
<defs>
<clipPath id="clip0_336_918">
<rect width="192" height="162.909" fill="white"/>
</clipPath>
</defs>
</svg>
