<svg width="154" height="123" viewBox="0 0 154 123" fill="none" xmlns="http://www.w3.org/2000/svg">
<path d="M143.805 66.7688C142.844 65.6242 141.401 64.8611 139.477 64.8611C128.896 64.8611 118.796 68.6765 112.543 75.5442L108.215 80.1226C102.924 85.0826 94.7482 87.7533 86.572 87.7533H72.1434C69.2577 87.7533 67.3338 86.2272 67.3338 83.938C67.3338 81.6487 69.2577 80.1226 72.1434 80.1226H81.2815C88.9768 80.1226 96.1911 75.1626 96.1911 69.058V68.6765C96.1911 66.7688 93.7863 64.8611 91.3815 64.8611H62.0434C44.729 64.8611 30.7814 70.9657 23.0861 80.8857L10.1003 96.9102C9.13843 98.0548 9.13843 99.5809 10.1003 100.726L24.529 119.802C25.0099 120.565 26.4528 121.328 27.4147 121.71C27.8956 121.71 27.8956 121.71 28.3766 121.71C29.3385 121.71 30.3004 121.328 31.2623 120.947C49.5386 111.409 70.7005 106.449 92.3434 106.449C108.215 106.449 122.644 99.5809 130.339 88.5164L143.325 70.2026C144.286 69.4396 144.286 67.9134 143.805 66.7688Z" fill="black"/>
<path d="M62.0428 57.2304H91.381C99.0763 57.2304 105.81 62.1904 105.81 68.295V69.0581L135.629 44.6397C147.172 35.1013 147.172 20.2214 135.629 10.683C129.857 6.48612 122.643 3.81537 114.948 3.81537C107.252 3.81537 99.5572 6.48612 93.7858 11.0646L91.381 12.9722L88.9762 11.0646C83.2048 6.48612 75.9905 3.81537 67.8143 3.81537C60.119 3.81537 52.9047 6.48612 47.1332 11.0646C35.5904 20.603 35.5904 35.4829 47.1332 45.0213L62.0428 57.2304ZM67.3333 34.3383H75.0286L83.2048 27.8521C84.1667 27.0891 85.6095 26.7075 87.5334 26.7075C88.9762 27.0891 90.4191 27.8521 90.9 28.6152L95.7096 36.2459L101.481 25.1814C101.962 24.0368 103.405 22.8922 105.329 22.8922C107.252 22.8922 108.695 23.2737 109.657 24.4183L119.276 35.8644C120.719 37.7721 120.238 40.0613 117.833 41.2059C115.429 42.3505 112.543 41.969 111.1 40.0613L106.772 34.7198L100.519 46.929C100.038 48.4551 98.1143 49.5997 96.1905 49.5997C94.2667 49.5997 92.8239 48.8366 91.8619 47.3105L85.1286 36.6275L80.3191 40.4428C79.3571 41.5875 78.3952 41.969 76.9524 41.969H67.3333C64.4476 41.969 62.5238 40.4428 62.5238 38.1536C62.5238 35.8644 64.4476 34.3383 67.3333 34.3383Z" fill="black"/>
</svg>
