<svg width="120" height="112" viewBox="0 0 120 112" fill="none" xmlns="http://www.w3.org/2000/svg">
<g clip-path="url(#clip0_336_547)">
<path d="M100.517 59.3471C99.775 59.3471 99.0335 59.3471 98.292 59.6946L96.0675 53.0916C97.5505 52.3965 99.0335 52.3965 100.517 52.3965C103.112 52.3965 105.707 52.7441 108.302 53.4391C110.156 54.1342 112.381 53.0916 113.122 51.3539C113.864 49.6163 112.751 47.5311 110.898 46.8361C107.561 45.7935 103.853 45.446 100.517 45.446C98.292 45.446 95.6968 45.7935 93.4723 46.141L85.3157 23.5517C84.945 22.1616 83.462 21.119 81.979 21.119H67.1489C64.9244 21.119 63.4414 22.5092 63.4414 24.5943C63.4414 26.6795 64.9244 28.0696 67.1489 28.0696H79.3837L81.979 35.0201H63.4414C61.9584 35.0201 60.8461 35.7152 60.1046 36.7578L58.6216 38.843C53.4311 46.8361 43.7915 50.6589 34.152 48.9212C29.703 46.8361 24.1417 45.446 18.9512 45.446C16.7267 45.446 15.2437 46.8361 15.2437 48.9212C15.2437 51.0064 16.7267 52.3965 18.9512 52.3965C33.4105 52.3965 44.9038 63.1699 44.9038 76.7234C44.9038 78.8086 46.3868 80.1987 48.6113 80.1987H70.8564C73.0809 80.1987 74.5639 78.8086 74.5639 76.7234C74.5639 67.3402 80.496 58.9995 89.0232 55.1767L91.2478 61.7798C85.6865 64.9075 81.979 70.468 81.979 76.7234C81.979 86.4542 90.1355 94.0998 100.517 94.0998C110.898 94.0998 119.054 86.4542 119.054 76.7234C119.054 66.9927 110.898 59.3471 100.517 59.3471Z" fill="black"/>
<path d="M18.9512 59.3471C8.57011 59.3471 0.413574 66.9927 0.413574 76.7234C0.413574 86.4542 8.57011 94.0998 18.9512 94.0998C29.3322 94.0998 37.4887 86.4542 37.4887 76.7234C37.4887 66.9927 29.3322 59.3471 18.9512 59.3471Z" fill="black"/>
</g>
<defs>
<clipPath id="clip0_336_547">
<rect width="118.641" height="111.209" fill="white" transform="translate(0.413574 0.267395)"/>
</clipPath>
</defs>
</svg>
