<svg width="120" height="112" viewBox="0 0 120 112" fill="none" xmlns="http://www.w3.org/2000/svg">
<g clip-path="url(#clip0_279_789)">
<path d="M100.517 59.3472C99.7755 59.3472 99.034 59.3472 98.2925 59.6947L96.068 53.0917C97.551 52.3966 99.034 52.3966 100.517 52.3966C103.112 52.3966 105.708 52.7441 108.303 53.4392C110.157 54.1343 112.381 53.0917 113.123 51.354C113.864 49.6164 112.752 47.5312 110.898 46.8362C107.561 45.7936 103.854 45.4461 100.517 45.4461C98.2925 45.4461 95.6973 45.7936 93.4728 46.1411L85.3162 23.5518C84.9455 22.1617 83.4625 21.1191 81.9794 21.1191H67.1494C64.9249 21.1191 63.4419 22.5093 63.4419 24.5944C63.4419 26.6796 64.9249 28.0697 67.1494 28.0697H79.3842L81.9794 35.0202H63.4419C61.9589 35.0202 60.8466 35.7153 60.1051 36.7579L58.6221 38.843C53.4316 46.8362 43.792 50.659 34.1525 48.9213C29.7035 46.8362 24.1422 45.4461 18.9517 45.4461C16.7271 45.4461 15.2441 46.8362 15.2441 48.9213C15.2441 51.0065 16.7271 52.3966 18.9517 52.3966C33.411 52.3966 44.9043 63.17 44.9043 76.7235C44.9043 78.8087 46.3873 80.1988 48.6118 80.1988H70.8569C73.0814 80.1988 74.5644 78.8087 74.5644 76.7235C74.5644 67.3403 80.4964 58.9996 89.0237 55.1768L91.2482 61.7799C85.687 64.9076 81.9794 70.468 81.9794 76.7235C81.9794 86.4543 90.136 94.0999 100.517 94.0999C110.898 94.0999 119.055 86.4543 119.055 76.7235C119.055 66.9928 110.898 59.3472 100.517 59.3472Z" fill="black"/>
<path d="M18.9516 59.3472C8.5706 59.3472 0.414062 66.9928 0.414062 76.7235C0.414062 86.4543 8.5706 94.0999 18.9516 94.0999C29.3327 94.0999 37.4892 86.4543 37.4892 76.7235C37.4892 66.9928 29.3327 59.3472 18.9516 59.3472Z" fill="black"/>
</g>
<defs>
<clipPath id="clip0_279_789">
<rect width="118.641" height="111.209" fill="white" transform="translate(0.414062 0.267456)"/>
</clipPath>
</defs>
</svg>
