<svg width="191" height="164" viewBox="0 0 191 164" fill="none" xmlns="http://www.w3.org/2000/svg">
<path d="M161.156 87.2032C159.962 87.2032 158.769 87.2032 157.575 87.7139L153.994 78.0095C156.381 76.988 158.769 76.988 161.156 76.988C165.334 76.988 169.512 77.4988 173.691 78.5203C176.675 79.5418 180.256 78.0095 181.45 75.4557C182.644 72.902 180.853 69.8374 177.869 68.8159C172.497 67.2836 166.528 66.7729 161.156 66.7729C157.575 66.7729 153.397 67.2836 149.816 67.7944L136.684 34.5951C136.087 32.552 133.7 31.0198 131.312 31.0198H107.437C103.856 31.0198 101.469 33.0628 101.469 36.1274C101.469 39.1919 103.856 41.2349 107.437 41.2349H127.134L131.312 51.4501H101.469C99.0812 51.4501 97.2906 52.4716 96.0969 54.0039L93.7094 57.0684C85.3531 68.8159 69.8344 74.4342 54.3156 71.8804C47.1531 68.8159 38.2 66.7729 29.8437 66.7729C26.2625 66.7729 23.875 68.8159 23.875 71.8804C23.875 74.945 26.2625 76.988 29.8437 76.988C53.1219 76.988 71.625 92.8215 71.625 112.741C71.625 115.806 74.0125 117.849 77.5937 117.849H113.406C116.987 117.849 119.375 115.806 119.375 112.741C119.375 98.9506 128.925 86.6924 142.653 81.0741L146.234 90.7785C137.281 95.3753 131.312 103.547 131.312 112.741C131.312 127.042 144.444 138.279 161.156 138.279C177.869 138.279 191 127.042 191 112.741C191 98.4399 177.869 87.2032 161.156 87.2032Z" fill="black"/>
<path d="M29.8438 87.2032C13.1313 87.2032 0 98.4399 0 112.741C0 127.042 13.1313 138.279 29.8438 138.279C46.5563 138.279 59.6875 127.042 59.6875 112.741C59.6875 98.4399 46.5563 87.2032 29.8438 87.2032Z" fill="black"/>
</svg>
