<svg width="26" height="13" viewBox="0 0 26 13" fill="none" xmlns="http://www.w3.org/2000/svg">
<path d="M5.44056 12.192C4.73656 12.192 4.09656 12.0587 3.52056 11.792C2.94456 11.5253 2.45389 11.1413 2.04856 10.64C1.64322 10.1387 1.32856 9.53067 1.10456 8.816C0.880557 8.10133 0.768555 7.30133 0.768555 6.416C0.768555 5.488 0.880557 4.66667 1.10456 3.952C1.32856 3.23733 1.63789 2.63467 2.03255 2.144C2.43789 1.65333 2.92322 1.28 3.48856 1.024C4.05389 0.767999 4.67789 0.639999 5.36055 0.639999C6.05389 0.639999 6.62989 0.757333 7.08855 0.992C7.55789 1.216 7.86722 1.49867 8.01656 1.84H8.08055V0.832H9.23256V4.096H8.08055V3.264C8.08055 2.73067 7.84589 2.304 7.37656 1.984C6.90722 1.65333 6.29389 1.488 5.53656 1.488C4.97122 1.488 4.48056 1.59467 4.06456 1.808C3.65922 2.01067 3.32322 2.29333 3.05656 2.656C2.80056 3.008 2.60856 3.424 2.48056 3.904C2.36322 4.37333 2.30455 4.86933 2.30455 5.392V7.328C2.30455 7.91467 2.37922 8.44267 2.52856 8.912C2.68856 9.38133 2.91255 9.78667 3.20055 10.128C3.49922 10.4587 3.86189 10.7147 4.28856 10.896C4.71522 11.0773 5.20056 11.168 5.74456 11.168C6.50189 11.168 7.13656 10.9707 7.64856 10.576C8.16056 10.1813 8.53389 9.68 8.76855 9.072L9.39256 9.376C9.29656 9.68533 9.14189 10.0053 8.92855 10.336C8.71522 10.6667 8.44322 10.9707 8.11256 11.248C7.79256 11.5253 7.40856 11.7547 6.96056 11.936C6.51256 12.1067 6.00589 12.192 5.44056 12.192Z" fill="#141D51"/>
<path d="M13.4509 12.192C12.6829 12.192 12.0803 11.9947 11.6429 11.6C11.2163 11.1947 11.0029 10.6453 11.0029 9.952C11.0029 9.55733 11.0669 9.21067 11.1949 8.912C11.3229 8.60267 11.5309 8.34667 11.8189 8.144C12.1176 7.94133 12.5016 7.78667 12.9709 7.68C13.4403 7.57333 14.0109 7.52 14.6829 7.52H15.8669V6.304C15.8669 5.65333 15.7069 5.15733 15.3869 4.816C15.0776 4.464 14.6083 4.288 13.9789 4.288C13.7016 4.288 13.4456 4.31467 13.2109 4.368C12.9763 4.41067 12.7843 4.47467 12.6349 4.56V4.592C12.7523 4.656 12.8643 4.752 12.9709 4.88C13.0883 5.008 13.1469 5.18933 13.1469 5.424C13.1469 5.70133 13.0669 5.92 12.9069 6.08C12.7469 6.22933 12.5336 6.304 12.2669 6.304C12.0109 6.304 11.7976 6.22933 11.6269 6.08C11.4669 5.92 11.3869 5.68533 11.3869 5.376C11.3869 5.14133 11.4563 4.91733 11.5949 4.704C11.7336 4.48 11.9309 4.28267 12.1869 4.112C12.4429 3.94133 12.7576 3.808 13.1309 3.712C13.5149 3.60533 13.9469 3.552 14.4269 3.552C15.2909 3.552 15.9629 3.776 16.4429 4.224C16.9336 4.672 17.1789 5.30133 17.1789 6.112V11.312H18.3789V11.872C18.2616 11.9573 18.1016 12.032 17.8989 12.096C17.7069 12.16 17.4883 12.192 17.2429 12.192C16.8269 12.192 16.5069 12.0747 16.2829 11.84C16.0589 11.6053 15.9469 11.2907 15.9469 10.896V10.784H15.8669C15.7923 10.9653 15.6909 11.1413 15.5629 11.312C15.4456 11.4827 15.2909 11.632 15.0989 11.76C14.9069 11.888 14.6723 11.9893 14.3949 12.064C14.1283 12.1493 13.8136 12.192 13.4509 12.192ZM14.0109 11.312C14.5229 11.312 14.9603 11.184 15.3229 10.928C15.6856 10.6613 15.8669 10.256 15.8669 9.712V8.16H14.8269C14.3683 8.16 13.9843 8.19733 13.6749 8.272C13.3656 8.336 13.1203 8.43733 12.9389 8.576C12.7576 8.704 12.6243 8.864 12.5389 9.056C12.4643 9.248 12.4269 9.472 12.4269 9.728V10.064C12.4269 10.4693 12.5656 10.7787 12.8429 10.992C13.1203 11.2053 13.5096 11.312 14.0109 11.312Z" fill="#141D51"/>
<path d="M19.7373 11.264H20.9213V4.784L19.7373 4.576V4.032L22.2013 3.552V4.992H22.2813C22.356 4.82133 22.4466 4.65067 22.5533 4.48C22.6706 4.30933 22.8093 4.15467 22.9693 4.016C23.14 3.87733 23.332 3.76533 23.5453 3.68C23.7693 3.59467 24.0253 3.552 24.3133 3.552C24.7826 3.552 25.156 3.664 25.4333 3.888C25.7213 4.112 25.8653 4.43733 25.8653 4.864C25.8653 5.184 25.7853 5.43467 25.6253 5.616C25.4653 5.79733 25.2573 5.888 25.0013 5.888C24.7133 5.888 24.484 5.81333 24.3133 5.664C24.1426 5.504 24.0573 5.30133 24.0573 5.056C24.0573 4.84267 24.1 4.672 24.1853 4.544C24.2813 4.40533 24.388 4.32533 24.5053 4.304V4.272C24.4626 4.26133 24.4093 4.256 24.3453 4.256C24.2813 4.24533 24.2013 4.24 24.1053 4.24C23.8813 4.24 23.6573 4.29867 23.4333 4.416C23.2093 4.52267 23.0066 4.66667 22.8253 4.848C22.6546 5.01867 22.5106 5.216 22.3933 5.44C22.2866 5.664 22.2333 5.888 22.2333 6.112V11.264H23.7373V12H19.7373V11.264Z" fill="#141D51"/>
</svg>
