<svg width="137" height="30" viewBox="0 0 137 30" fill="none" xmlns="http://www.w3.org/2000/svg">
<path d="M14.8895 0C11.0574 0 10.5769 0.0167435 9.07186 0.0875281C7.57 0.158197 6.54428 0.404038 5.64672 0.763619C4.71885 1.13533 3.93196 1.63266 3.14753 2.44126C2.3631 3.24986 1.88063 4.06099 1.52003 5.01745C1.1712 5.94262 0.932709 6.99994 0.864153 8.54808C0.795484 10.0995 0.779297 10.5948 0.779297 14.545C0.779297 18.4951 0.795484 18.9904 0.864153 20.5418C0.932709 22.0899 1.1712 23.1473 1.52003 24.0724C1.88063 25.0289 2.3631 25.84 3.14753 26.6487C3.93196 27.4573 4.71885 27.9546 5.64672 28.3263C6.54428 28.6858 7.57 28.9317 9.07186 29.0023C10.5769 29.0731 11.0574 29.0899 14.8895 29.0899C18.7216 29.0899 19.2021 29.0731 20.7071 29.0023C22.2089 28.9317 23.2347 28.6858 24.1322 28.3263C25.06 27.9546 25.8469 27.4573 26.6314 26.6487C27.4158 25.84 27.8983 25.0289 28.2589 24.0724C28.6077 23.1473 28.8462 22.0899 28.9147 20.5418C28.9834 18.9904 28.9996 18.4951 28.9996 14.545C28.9996 10.5948 28.9834 10.0995 28.9147 8.54808C28.8462 6.99994 28.6077 5.94262 28.2589 5.01745C27.8983 4.06099 27.4158 3.24986 26.6314 2.44126C25.8469 1.63266 25.06 1.13533 24.1322 0.763619C23.2347 0.404038 22.2089 0.158197 20.7071 0.0875281C19.2021 0.0167435 18.7216 0 14.8895 0ZM14.8895 2.62076C18.657 2.62076 19.1033 2.63554 20.5912 2.70552C21.9669 2.77024 22.714 3.00719 23.2112 3.20632C23.8699 3.47018 24.3399 3.78542 24.8336 4.29436C25.3274 4.80331 25.6332 5.28789 25.8892 5.96675C26.0824 6.47927 26.3123 7.24942 26.375 8.66753C26.4429 10.2012 26.4573 10.6613 26.4573 14.545C26.4573 18.4286 26.4429 18.8886 26.375 20.4223C26.3123 21.8405 26.0824 22.6106 25.8892 23.1231C25.6332 23.802 25.3274 24.2866 24.8336 24.7955C24.3399 25.3045 23.8699 25.6197 23.2112 25.8836C22.714 26.0827 21.9669 26.3197 20.5912 26.3844C19.1036 26.4543 18.6573 26.4692 14.8895 26.4692C11.1216 26.4692 10.6754 26.4543 9.18775 26.3844C7.81202 26.3197 7.0649 26.0827 6.56769 25.8836C5.90907 25.6197 5.43903 25.3045 4.94524 24.7955C4.45151 24.2866 4.14569 23.802 3.88978 23.1231C3.69654 22.6106 3.46668 21.8405 3.40389 20.4223C3.336 18.8886 3.32167 18.4286 3.32167 14.545C3.32167 10.6613 3.336 10.2012 3.40389 8.66753C3.46668 7.24942 3.69654 6.47927 3.88978 5.96675C4.14569 5.28789 4.45151 4.80331 4.94524 4.29436C5.43903 3.78542 5.90907 3.47018 6.56769 3.20632C7.0649 3.00719 7.81202 2.77024 9.18775 2.70552C10.6756 2.63554 11.1219 2.62076 14.8895 2.62076Z" fill="black"/>
<path d="M14.8898 19.3704C12.2922 19.3704 10.1864 17.1997 10.1864 14.5221C10.1864 11.8444 12.2922 9.67377 14.8898 9.67377C17.4874 9.67377 19.5932 11.8444 19.5932 14.5221C19.5932 17.1997 17.4874 19.3704 14.8898 19.3704ZM14.8898 7.05307C10.8881 7.05307 7.64404 10.397 7.64404 14.5221C7.64404 18.6471 10.8881 21.9911 14.8898 21.9911C18.8916 21.9911 22.1356 18.6471 22.1356 14.5221C22.1356 10.397 18.8916 7.05307 14.8898 7.05307Z" fill="#030404"/>
<path d="M23.864 7.03516C23.864 7.99913 23.1059 8.78053 22.1707 8.78053C21.2356 8.78053 20.4775 7.99913 20.4775 7.03516C20.4775 6.0712 21.2356 5.2898 22.1707 5.2898C23.1059 5.2898 23.864 6.0712 23.864 7.03516Z" fill="#030404"/>
<path d="M76.3667 10.1564H71.5988V7.25034C71.5988 6.15897 72.3771 5.90453 72.9253 5.90453C73.4723 5.90453 76.29 5.90453 76.29 5.90453V1.10668L71.6562 1.08987C66.5122 1.08987 65.3416 4.66826 65.3416 6.95823V10.1564H62.3667V15.1003H65.3416C65.3416 21.4451 65.3416 29.0899 65.3416 29.0899H71.5988C71.5988 29.0899 71.5988 21.3697 71.5988 15.1003H75.821L76.3667 10.1564Z" fill="black"/>
<path d="M136.367 3.52273C135.337 4.10586 134.23 4.4992 133.067 4.67523C134.254 3.76975 135.164 2.33547 135.593 0.62447C134.483 1.46403 133.254 2.07324 131.945 2.40211C130.898 0.979418 129.405 0.0898743 127.752 0.0898743C124.58 0.0898743 122.008 3.36771 122.008 7.41123C122.008 7.98421 122.059 8.54271 122.157 9.07948C117.383 8.77379 113.15 5.85959 110.316 1.42998C109.822 2.51077 109.539 3.7683 109.539 5.11131C109.539 7.651 110.553 9.89224 112.094 11.2048C111.153 11.1664 110.267 10.8368 109.492 10.2885C109.492 10.3189 109.492 10.3501 109.492 10.3812C109.492 13.9278 111.472 16.8862 114.1 17.5598C113.618 17.7265 113.11 17.8163 112.586 17.8163C112.216 17.8163 111.856 17.7706 111.505 17.6844C112.237 20.5928 114.358 22.7102 116.871 22.7689C114.905 24.7327 112.429 25.9033 109.737 25.9033C109.274 25.9033 108.816 25.8685 108.367 25.8004C110.91 27.8787 113.929 29.0899 117.173 29.0899C127.739 29.0899 133.517 17.9344 133.517 8.25948C133.517 7.9422 133.512 7.62564 133.501 7.31126C134.623 6.28119 135.597 4.99106 136.367 3.52273Z" fill="black"/>
</svg>
